<?xml version="1.0" standalone="no"?>
<!DOCTYPE svg PUBLIC "-//W3C//DTD SVG 20010904//EN"
 "http://www.w3.org/TR/2001/REC-SVG-20010904/DTD/svg10.dtd">
<svg version="1.0" xmlns="http://www.w3.org/2000/svg"
 width="5000.000000pt" height="5000.000000pt" viewBox="0 0 5000.000000 5000.000000"
 preserveAspectRatio="xMidYMid meet">
<metadata>
Created by potrace 1.14, written by Peter Selinger 2001-2017
</metadata>
<g transform="translate(0.000000,5000.000000) scale(0.100000,-0.100000)"
fill="#000000" stroke="none">
<path d="M9869 33107 c9 -21 35 -81 67 -154 32 -74 49 -112 187 -433 80 -184
198 -456 262 -605 64 -148 153 -353 197 -455 44 -102 88 -203 98 -225 20 -45
258 -594 300 -695 16 -36 37 -85 48 -110 31 -70 267 -614 396 -915 64 -148
121 -279 126 -290 9 -18 137 -315 405 -935 53 -124 142 -328 197 -455 55 -126
127 -293 160 -370 34 -77 71 -162 83 -190 12 -27 44 -99 69 -160 26 -60 53
-123 61 -140 7 -16 86 -198 175 -404 89 -206 170 -392 181 -415 10 -22 19 -43
19 -47 0 -4 13 -36 29 -71 16 -35 57 -128 91 -208 34 -80 72 -167 85 -195 12
-27 43 -97 68 -155 113 -262 977 -2258 1099 -2540 28 -63 66 -151 85 -195 73
-170 95 -221 108 -250 7 -16 36 -82 63 -145 223 -516 318 -735 344 -795 17
-38 37 -83 44 -100 79 -184 350 -809 364 -840 10 -22 30 -69 45 -105 15 -36
36 -84 46 -107 11 -24 27 -62 38 -85 10 -24 31 -72 46 -108 15 -36 36 -85 47
-110 11 -25 26 -58 33 -75 7 -16 24 -56 39 -88 14 -32 26 -60 26 -63 0 -4 13
-34 29 -68 16 -33 41 -90 56 -126 15 -36 33 -78 40 -95 24 -55 186 -430 200
-460 7 -16 57 -131 110 -255 112 -260 160 -369 184 -425 10 -22 30 -67 44
-100 14 -33 57 -132 95 -220 229 -525 499 -1151 525 -1215 17 -41 35 -81 40
-87 7 -10 62 -13 213 -13 203 0 205 0 213 23 5 12 20 47 34 77 13 30 77 179
142 330 64 151 125 293 135 315 10 22 71 164 135 315 65 151 126 293 136 315
9 22 32 74 49 115 18 41 40 93 50 115 10 22 36 85 59 140 23 55 48 114 56 130
7 17 221 513 474 1102 253 590 470 1093 481 1117 11 25 20 47 20 50 0 3 11 29
24 58 14 29 143 328 286 663 643 1498 863 2012 885 2060 8 17 48 111 90 210
100 234 97 228 135 315 18 41 39 91 48 110 8 19 20 49 27 65 7 17 55 127 105
245 85 198 109 253 146 335 7 17 67 156 132 310 66 154 129 300 140 325 27 60
277 645 362 845 37 88 79 186 94 217 14 31 26 59 26 62 0 3 14 35 30 71 17 36
30 67 30 70 0 2 14 33 30 68 17 36 30 68 30 71 0 3 11 29 24 58 26 58 77 176
121 278 15 36 36 83 45 105 10 22 30 69 45 105 15 36 33 79 41 95 7 17 173
404 369 860 196 457 362 844 369 860 8 17 26 59 41 95 28 66 48 112 91 208 13
29 24 55 24 57 0 3 9 24 19 48 11 23 32 71 47 107 14 36 34 83 44 105 10 22
39 90 65 150 26 61 55 128 65 150 10 22 97 225 193 450 97 226 217 504 266
620 50 115 91 216 91 222 0 7 5 13 10 13 6 0 10 5 10 12 0 8 335 798 455 1073
42 95 57 129 95 220 23 55 51 118 61 139 10 22 18 40 16 42 -2 2 -278 -101
-312 -117 -11 -5 -49 -20 -85 -33 -73 -26 -1466 -560 -1660 -636 -69 -27 -183
-71 -255 -98 -346 -131 -642 -244 -660 -252 -11 -5 -128 -50 -260 -100 -132
-50 -249 -95 -260 -100 -11 -5 -49 -20 -85 -34 -156 -59 -438 -166 -465 -177
-16 -7 -34 -13 -40 -15 -5 -1 -44 -16 -85 -32 -41 -17 -230 -90 -420 -162
-190 -73 -383 -147 -430 -165 -47 -18 -238 -92 -425 -163 -187 -72 -430 -165
-540 -207 -110 -42 -382 -147 -605 -232 -480 -183 -578 -221 -605 -232 -11 -5
-94 -37 -185 -72 -91 -34 -214 -81 -275 -104 -60 -24 -225 -86 -365 -140 -140
-53 -264 -101 -275 -106 -18 -8 -177 -69 -350 -134 -107 -40 -330 -127 -336
-131 -4 -2 -69 46 -145 106 -77 61 -166 132 -199 158 -33 26 -69 54 -80 64
-11 9 -77 61 -146 115 -69 54 -132 104 -140 111 -12 11 -184 147 -278 221 -19
14 -39 31 -45 36 -6 6 -27 22 -46 36 -19 15 -45 35 -57 45 -12 11 -99 80 -193
154 -94 74 -226 179 -293 232 -67 54 -126 101 -132 105 -18 14 -400 317 -415
330 -8 7 -76 60 -150 119 -74 59 -151 119 -170 135 -49 39 -360 286 -390 310
-14 10 -36 28 -50 39 -29 23 -290 230 -335 266 -61 48 -411 325 -425 337 -8 7
-80 64 -160 127 -80 63 -154 122 -165 132 -40 33 -241 192 -290 229 l-50 38
-577 0 -577 0 8 -22z m12842 -1732 c-65 -149 -230 -524 -366 -835 -136 -311
-270 -617 -298 -680 -27 -63 -59 -137 -72 -165 -12 -27 -37 -84 -55 -125 -18
-41 -40 -93 -50 -115 -10 -22 -42 -94 -70 -160 -29 -66 -63 -142 -75 -170 -13
-27 -53 -120 -90 -205 -37 -85 -76 -173 -85 -195 -10 -22 -35 -78 -55 -125
-42 -97 -53 -123 -88 -200 -14 -30 -55 -125 -92 -210 -37 -85 -78 -177 -90
-205 -13 -27 -69 -156 -125 -285 -97 -221 -133 -304 -165 -375 -17 -38 -112
-256 -172 -395 -25 -58 -53 -123 -63 -145 -43 -96 -149 -335 -225 -511 -46
-105 -92 -211 -103 -235 -11 -24 -59 -134 -107 -244 -48 -110 -90 -203 -94
-207 -5 -5 -133 95 -306 240 -11 10 -78 64 -150 122 -71 58 -132 107 -135 110
-3 3 -26 22 -51 42 -26 21 -57 46 -70 57 -22 19 -167 137 -594 485 -93 76
-186 151 -205 167 -19 16 -163 133 -320 261 -157 128 -332 271 -390 318 -58
47 -116 94 -130 106 -14 12 -128 106 -255 209 -126 102 -250 203 -274 223 -24
20 -54 44 -65 52 -12 8 -25 19 -31 25 -5 7 -93 79 -194 161 -288 233 -423 342
-466 378 -22 19 -106 88 -188 154 -81 66 -144 123 -139 126 4 2 57 26 117 51
61 26 295 125 520 221 458 195 517 221 560 240 17 7 280 119 585 249 305 130
735 313 955 407 220 94 418 178 440 188 22 10 344 147 715 305 371 158 693
295 715 305 22 10 144 61 270 115 127 54 322 137 435 185 113 48 345 147 515
220 171 72 329 140 352 151 24 10 45 19 47 19 2 0 19 7 37 15 152 66 354 152
356 151 1 -1 -51 -123 -116 -271z m-10756 -423 c66 -50 125 -95 130 -99 6 -5
64 -49 130 -98 66 -49 122 -92 125 -95 3 -3 21 -17 40 -30 19 -13 37 -27 40
-30 3 -3 50 -39 105 -80 55 -41 105 -78 110 -82 6 -5 89 -68 185 -140 96 -72
191 -143 210 -158 19 -15 80 -60 135 -101 55 -41 102 -76 105 -79 3 -3 122
-93 265 -200 143 -107 262 -197 265 -200 3 -3 112 -86 244 -184 159 -120 234
-181 225 -186 -8 -4 -219 -87 -469 -185 -250 -97 -474 -185 -497 -196 -24 -10
-45 -19 -48 -19 -2 0 -102 -38 -220 -85 -119 -47 -220 -85 -224 -85 -5 0 -23
35 -41 78 -18 42 -38 91 -45 107 -7 17 -81 194 -165 395 -83 201 -157 379
-165 395 -7 17 -29 71 -49 120 -20 50 -41 99 -45 110 -5 11 -16 36 -24 55 -8
19 -26 62 -40 95 -56 129 -307 735 -307 740 0 3 -9 24 -19 48 -41 89 -131 306
-131 315 0 4 29 -17 175 -126z m3209 -2604 c29 -24 65 -52 80 -63 16 -11 33
-25 40 -30 6 -6 117 -93 246 -193 129 -101 242 -188 250 -195 8 -7 123 -96
255 -199 384 -299 908 -707 935 -729 14 -11 38 -30 54 -42 44 -34 509 -396
526 -410 8 -7 53 -41 100 -77 47 -36 87 -67 90 -70 6 -7 154 -122 275 -215 50
-38 95 -74 102 -80 6 -5 62 -49 125 -97 62 -48 192 -150 289 -225 97 -76 191
-149 209 -163 28 -21 397 -309 440 -343 8 -7 82 -64 164 -127 81 -63 187 -146
235 -184 47 -37 95 -74 105 -82 18 -12 18 -14 2 -51 -10 -21 -21 -47 -26 -58
-5 -11 -24 -56 -43 -100 -20 -44 -103 -237 -186 -430 -84 -192 -156 -359 -161
-370 -5 -11 -35 -78 -65 -150 -31 -71 -63 -145 -71 -162 -21 -49 -30 -71 -179
-413 -75 -173 -143 -328 -150 -345 -8 -16 -25 -58 -39 -92 -15 -35 -37 -86
-50 -115 -13 -29 -43 -98 -66 -153 -24 -55 -53 -122 -65 -150 -13 -27 -87
-198 -165 -380 -78 -181 -152 -350 -163 -375 -11 -25 -123 -283 -249 -575
-127 -291 -241 -554 -254 -583 -13 -29 -24 -55 -24 -57 0 -2 -11 -28 -24 -57
-34 -73 -166 -378 -166 -383 0 -2 -16 -37 -35 -79 -19 -41 -58 -131 -86 -198
-28 -68 -56 -129 -61 -135 -6 -7 -8 -13 -5 -13 3 0 -10 -32 -29 -70 -19 -39
-34 -73 -34 -76 0 -6 -20 -52 -46 -109 -8 -16 -34 -76 -58 -133 -23 -57 -47
-104 -52 -104 -5 0 -35 58 -66 128 -32 71 -72 161 -89 199 -42 91 -199 441
-304 675 -45 102 -99 220 -119 263 -20 43 -36 80 -36 82 0 2 -13 32 -29 67
-16 35 -49 108 -74 163 -44 97 -69 154 -123 273 -15 31 -43 95 -64 142 -21 47
-52 117 -70 155 -18 39 -58 129 -90 200 -32 72 -72 162 -90 200 -18 39 -59
131 -92 205 -32 74 -70 158 -82 185 -13 28 -31 66 -39 85 -9 19 -30 67 -47
105 -17 39 -61 135 -97 215 -36 80 -80 178 -99 218 -19 40 -34 75 -34 77 0 3
-14 35 -31 72 -17 38 -60 133 -96 213 -36 80 -75 168 -88 195 -19 41 -71 157
-180 400 -30 67 -79 174 -111 243 -19 40 -34 75 -34 78 0 2 -18 43 -40 90 -22
47 -40 87 -40 89 0 2 -15 37 -34 78 -19 41 -96 211 -171 378 -144 322 -145
325 -195 434 -18 39 -91 201 -162 360 -71 160 -141 315 -155 345 -14 30 -42
93 -63 140 -21 47 -60 135 -87 195 -28 61 -78 173 -113 250 -34 77 -73 163
-85 190 -40 87 -84 183 -192 424 -57 129 -113 253 -123 275 -82 179 -258 575
-263 591 -6 17 1 23 41 39 26 10 65 26 87 36 22 10 108 46 190 80 83 33 159
65 170 70 11 5 76 32 145 60 69 29 139 58 157 66 17 8 34 14 37 14 3 0 29 11
58 24 29 13 105 45 168 71 63 25 129 52 145 60 17 7 163 68 325 135 162 67
309 128 325 135 17 8 31 15 33 15 2 0 27 -19 56 -42z"/>
<path d="M25650 24986 l0 -8133 474 -1 473 0 -3 406 c-2 375 -8 1192 -19 2592
-3 305 -7 872 -10 1260 -3 388 -7 962 -10 1275 -2 314 -7 908 -10 1320 -3 413
-8 1011 -10 1330 l-5 580 113 -116 c110 -114 399 -416 492 -514 53 -57 119
-126 391 -410 105 -110 208 -218 228 -240 21 -22 111 -116 200 -210 90 -93
182 -190 205 -215 24 -25 120 -126 214 -224 95 -99 188 -196 207 -217 19 -20
103 -108 187 -195 83 -88 173 -182 200 -210 26 -29 122 -129 213 -224 91 -95
183 -192 205 -215 22 -23 115 -120 206 -216 92 -96 186 -194 209 -219 23 -25
118 -124 210 -220 92 -96 182 -191 200 -210 18 -19 108 -114 200 -210 92 -96
212 -222 266 -279 55 -57 119 -125 144 -151 25 -26 119 -125 210 -220 91 -95
185 -194 210 -220 25 -26 109 -114 187 -196 78 -82 168 -176 200 -210 32 -34
135 -142 229 -240 94 -98 183 -192 198 -208 15 -16 109 -115 210 -220 100
-105 213 -223 251 -263 37 -39 97 -103 134 -141 36 -38 136 -142 221 -232 85
-89 180 -188 210 -219 30 -32 120 -126 200 -210 80 -85 170 -179 200 -210 30
-32 134 -140 230 -241 214 -224 337 -354 410 -430 30 -31 114 -119 185 -195
72 -75 155 -163 185 -194 30 -32 133 -139 228 -238 l172 -180 676 -1 c514 0
673 2 665 11 -12 15 -137 144 -556 572 -183 187 -387 396 -454 465 -67 69
-247 253 -399 409 -152 155 -333 341 -402 411 -69 71 -264 271 -435 445 -170
175 -355 364 -410 420 -84 87 -328 336 -815 834 -393 403 -754 772 -855 876
-66 68 -255 261 -420 430 -165 169 -345 353 -400 410 -55 56 -244 250 -420
430 -176 180 -374 383 -440 450 -66 68 -266 272 -445 455 -179 183 -361 370
-405 415 -44 46 -224 230 -400 410 -176 180 -367 375 -424 434 -57 58 -251
257 -431 441 -180 184 -365 374 -411 421 -137 141 -717 735 -946 968 -193 196
-213 219 -213 251 -1 19 -2 981 -3 2137 -2 2083 -2 2101 17 2085 11 -9 30 -27
41 -39 12 -13 154 -158 316 -324 162 -166 339 -348 394 -404 55 -57 224 -230
375 -385 151 -156 317 -326 369 -379 51 -53 216 -222 366 -376 151 -154 322
-329 380 -390 59 -60 232 -238 384 -393 152 -156 325 -334 385 -395 59 -62
189 -195 288 -297 100 -102 319 -327 488 -500 169 -173 343 -352 386 -396 77
-79 542 -557 754 -774 392 -402 698 -716 760 -780 40 -41 202 -208 360 -370
159 -162 328 -336 377 -386 48 -51 225 -232 393 -404 168 -172 339 -347 380
-390 41 -43 206 -212 367 -376 160 -165 344 -354 410 -421 65 -67 236 -242
380 -390 143 -147 302 -310 351 -361 50 -51 222 -228 384 -393 161 -165 333
-342 381 -392 49 -51 227 -234 397 -407 169 -173 340 -349 380 -390 40 -41
204 -209 364 -373 160 -164 334 -343 386 -397 52 -54 222 -228 377 -386 154
-159 322 -332 373 -384 237 -244 699 -717 737 -754 l43 -41 0 -666 0 -667 405
0 405 0 0 142 c1 77 3 553 5 1056 2 503 7 1518 10 2255 3 737 8 1797 10 2355
2 558 7 1591 10 2295 3 704 7 1775 10 2380 3 605 7 1633 10 2285 3 652 7 1706
10 2343 3 636 3 1157 0 1157 -3 0 -30 -26 -61 -57 -31 -32 -228 -233 -437
-447 -210 -214 -422 -430 -472 -481 -49 -50 -264 -269 -476 -486 -213 -217
-442 -451 -510 -520 -116 -119 -695 -709 -964 -983 -187 -191 -888 -907 -1005
-1026 -58 -59 -280 -287 -495 -505 -214 -219 -430 -439 -480 -490 -49 -51
-262 -267 -472 -481 -209 -214 -431 -441 -493 -504 -62 -63 -289 -295 -505
-515 -216 -220 -475 -484 -575 -587 -101 -104 -187 -188 -193 -188 -5 0 -71
63 -146 139 -75 77 -345 352 -601 611 -256 260 -548 557 -650 660 -102 104
-376 382 -610 619 -234 238 -513 521 -620 630 -107 110 -416 423 -687 698
-270 274 -555 563 -633 643 -79 80 -341 346 -584 593 -242 246 -539 547 -660
670 -120 122 -435 442 -700 710 -264 269 -543 553 -620 630 -302 309 -657 667
-661 667 -3 0 -5 -3660 -5 -8134z m13473 5847 c-1 -81 -4 -524 -8 -983 -3
-459 -8 -1103 -10 -1430 -8 -1037 -15 -2053 -20 -2760 -6 -822 -13 -1849 -20
-2700 -2 -344 -7 -998 -10 -1455 -4 -456 -8 -1057 -10 -1335 -2 -278 -4 -577
-5 -665 l-1 -160 -77 81 c-42 44 -129 136 -192 204 -63 68 -131 140 -150 161
-19 20 -82 88 -140 149 -58 62 -116 124 -129 139 -26 28 -232 248 -291 311
-19 20 -87 93 -150 160 -63 68 -150 160 -192 204 -42 45 -85 91 -96 104 -11
13 -74 80 -140 150 -66 70 -134 143 -152 162 -53 57 -243 261 -270 289 -14 15
-54 58 -90 97 -36 38 -101 108 -145 155 -44 46 -111 119 -150 160 -38 41 -126
135 -195 208 -69 74 -134 144 -145 156 -11 11 -49 52 -85 91 -199 212 -321
343 -350 374 -44 47 -258 277 -345 369 -38 42 -74 80 -80 87 -5 6 -65 69 -131
140 -67 71 -136 145 -154 164 -61 65 -255 272 -290 309 -19 20 -82 88 -140
151 -58 62 -121 130 -140 150 -19 20 -87 93 -150 160 -63 68 -145 156 -181
194 -37 39 -83 89 -104 111 -20 22 -65 69 -98 105 -128 136 -313 333 -327 350
-8 10 -71 77 -140 150 -69 72 -125 136 -125 141 0 4 214 225 475 490 261 265
551 558 644 653 92 94 401 406 685 694 284 288 608 616 719 730 112 114 450
457 752 762 301 305 644 653 761 772 118 119 446 452 729 738 283 287 591 600
685 695 93 96 172 172 175 170 3 -2 4 -70 3 -152z"/>
</g>
</svg>
